<svg xmlns="http://www.w3.org/2000/svg" width="48" height="48" viewBox="0 0 48 48" fill="none">
  <rect width="48" height="48" rx="8" fill="#0D47A1"/>
  <path fill-rule="evenodd" clip-rule="evenodd" d="M24 14C18.477 14 14 18.477 14 24C14 28.418 16.865 32.168 20.839 33.5C21.339 33.591 21.5 33.275 21.5 33.005V30.931C18.984 31.453 18.422 29.719 18.422 29.719C17.977 28.633 17.34 28.344 17.34 28.344C16.47 27.768 18.408 27.79 18.408 27.79C20.39 27.931 21.016 29.84 21.016 29.84C22.844 32.758 25.77 31.84 26.84 31.275C27.02 30.648 27.34 30.2 27.695 29.931C25.547 29.662 23.273 28.797 23.273 25.273C23.273 24.273 23.625 23.5 24.195 22.93C24.09 22.662 23.79 21.727 24.3 20.453C24.3 20.453 25.125 20.162 26.5 21.086C27.273 20.875 28.11 20.773 28.945 20.773C29.78 20.773 30.617 20.875 31.39 21.086C32.765 20.162 33.59 20.453 33.59 20.453C34.1 21.727 33.8 22.662 33.695 22.93C34.265 23.5 34.617 24.273 34.617 25.273C34.617 28.812 32.34 29.656 30.187 29.922C30.617 30.25 31 30.922 31 31.945V33.005C31 33.275 31.16 33.597 31.675 33.5C35.645 32.165 38.5 28.418 38.5 24C38.5 18.477 34.023 14 28.5 14H24Z" fill="white"/>
</svg>
