<svg xmlns="http://www.w3.org/2000/svg" width="48" height="48" viewBox="0 0 48 48" fill="none">
  <rect width="48" height="48" rx="8" fill="#0D47A1"/>
  <path d="M33.5 31.5C32.5 30.5 31.5 29.5 30.5 29.5C29.5 29.5 28.5 30.5 27.5 31.5C25 29.5 22.5 27 20.5 24.5C21.5 23.5 22.5 22.5 22.5 21.5C22.5 20.5 21.5 19.5 20.5 18.5C19.5 17.5 18.5 16.5 17.5 15.5C16.5 14.5 15 14.5 14 15.5C13 16.5 12 18 12 19.5C12 23.5 15.5 28 19.5 32C23.5 36 28 39.5 32 39.5C33.5 39.5 35 38.5 36 37.5C37 36.5 37 35 36 34C35 33 34.5 32.5 33.5 31.5Z" fill="white"/>
</svg>
