<svg width="200" height="200" viewBox="0 0 200 200" xmlns="http://www.w3.org/2000/svg">
  <!-- Square Container -->
  <rect x="0" y="0" width="200" height="200" rx="20" fill="#121212"/>

  <!-- Game Controller -->
  <g transform="translate(50, 60)">
    <rect x="0" y="0" width="100" height="60" rx="15" fill="#2c2c2c" stroke="#00ffd0" stroke-width="2"/>
    
    <!-- D-Pad -->
    <rect x="15" y="20" width="8" height="20" fill="#ffffff"/>
    <rect x="10" y="25" width="20" height="8" fill="#ffffff"/>

    <!-- Action Buttons -->
    <circle cx="75" cy="25" r="6" fill="#ff4d4d"/>
    <circle cx="90" cy="20" r="6" fill="#4dff4d"/>
    <circle cx="90" cy="40" r="6" fill="#4d4dff"/>
  </g>

  <!-- Gear Icon -->
  <g transform="translate(150, 40) scale(0.8)">
    <circle r="10" fill="#00ffd0"/>
    <path d="M10 0 L13 0 L13 3 L10 3 Z M-10 0 L-13 0 L-13 3 L-10 3 Z M0 10 L0 13 L3 13 L3 10 Z M0 -10 L0 -13 L3 -13 L3 -10 Z" fill="#121212"/>
    <circle r="4" fill="#121212"/>
  </g>

  <!-- Label -->
</svg>
